<svg width="24" height="24" fill="none" xmlns="http://www.w3.org/2000/svg"><path fill-rule="evenodd" clip-rule="evenodd" d="M15.592 16.447c1.042-.233 2.355-1.49 2.61-2.5.428-1.957.428-3.94 0-5.897-.255-1.011-1.567-2.268-2.61-2.5a19.144 19.144 0 0 0-7.185 0c-1.043.232-2.355 1.489-2.611 2.5a13.743 13.743 0 0 0 0 5.896c.256 1.011 1.568 2.268 2.61 2.5a.1.1 0 0 1 .082.097v2.866a.16.16 0 0 0 .274.11l2.641-2.71c.02-.02.046-.03.073-.03 1.375.038 2.75-.073 4.116-.332Zm-1.477-1.221a2.544 2.544 0 0 1-.303-.097c-1.47-.61-2.823-1.397-3.894-2.603-.61-.686-1.087-1.46-1.49-2.28-.172-.348-.319-.71-.466-1.07l-.05-.124c-.15-.366.07-.744.302-1.02.218-.258.499-.456.803-.602.237-.114.47-.048.644.153.374.434.718.89.996 1.394.171.31.124.689-.186.9-.06.04-.117.088-.173.135l-.041.034a.701.701 0 0 0-.162.17.467.467 0 0 0-.031.411c.382 1.052 1.027 1.87 2.086 2.31l.045.019c.155.065.312.131.49.11.21-.024.33-.183.45-.343.065-.087.13-.174.21-.24a.623.623 0 0 1 .752-.033c.241.152.475.316.707.482l.047.033c.212.151.423.301.619.474.202.178.272.411.158.653-.209.443-.512.811-.95 1.046-.085.046-.18.07-.277.095a2.77 2.77 0 0 0-.134.036c-.051-.015-.102-.03-.152-.043Zm1.73-5.071c-.34-1.901-1.919-3.178-3.842-3.231h-.032c-.027-.001-.053-.002-.08 0-.136.007-.257.121-.231.264.029.162.19.178.325.192l.023.002.203.019c.15.013.3.026.448.052a3.436 3.436 0 0 1 2.767 2.872c.03.216.045.435.06.654l.012.166c.01.138.079.267.233.265.15-.002.228-.133.217-.271l-.01-.122a8.672 8.672 0 0 0-.094-.862Zm-.92.557-.002.024a.646.646 0 0 1-.016.11c-.052.193-.344.217-.412.022a.586.586 0 0 1-.023-.186c0-.407-.089-.814-.294-1.168a2.175 2.175 0 0 0-.912-.856 2.624 2.624 0 0 0-.727-.223 5.172 5.172 0 0 0-.206-.029l-.125-.016c-.133-.018-.204-.103-.198-.235.006-.123.096-.212.23-.204.442.025.868.12 1.26.328.798.423 1.254 1.09 1.387 1.98l.007.043c.005.026.01.052.011.078.006.07.01.14.014.222l.006.11Zm-1.46-.28c.018.147.104.236.264.233.074-.005.149-.055.172-.157.014-.057.008-.12.003-.18v-.006c-.077-.878-.61-1.264-1.355-1.317a.231.231 0 0 0-.244.185c-.02.12.05.224.179.255.055.014.111.019.167.024.064.006.128.012.191.03a.833.833 0 0 1 .26.125c.166.12.27.303.319.5.02.087.03.176.04.265l.005.043Z" fill="#DBDBDB"/><path fill-rule="evenodd" clip-rule="evenodd" d="M0 0h24v24H0V0Zm19.585 7.717.005.02c.474 2.164.474 4.359 0 6.523l-.005.019c-.383 1.55-2.112 3.213-3.699 3.559l-.018.004a20.63 20.63 0 0 1-5.01.334l-1.752 1.822a.696.696 0 0 1-1.197-.482v-1.73c-1.528-.437-3.128-2.023-3.496-3.507l-.004-.019a15.144 15.144 0 0 1 0-6.524l.004-.019c.384-1.55 2.113-3.213 3.7-3.559l.018-.003c2.567-.49 5.17-.49 7.737 0l.018.003c1.587.346 3.316 2.01 3.699 3.56Z" fill="#DBDBDB"/></svg>